<svg xmlns="http://www.w3.org/2000/svg" xmlns:xlink="http://www.w3.org/1999/xlink" xml:space="preserve" version="1.1" style="shape-rendering:geometricPrecision;text-rendering:geometricPrecision;image-rendering:optimizeQuality;" viewBox="0 0 847 1058.75" x="0px" y="0px" fill-rule="evenodd" clip-rule="evenodd"><defs><style type="text/css">
   
    .fil0 {fill:black}
   
  </style></defs><g><path class="fil0" d="M21 21l805 0 0 805 -805 0 0 -805zm646 599l-197 -197 197 -197c31,-30 -16,-77 -47,-46l-197 197 -197 -197c-30,-31 -77,16 -46,46l197 197 -197 197c-31,31 16,78 46,47l197 -197 197 197c31,31 78,-16 47,-47zm-12 12l-208 -209 208 -208c16,-16 -8,-39 -23,-24l-209 209 -208 -209c-16,-15 -39,8 -24,24l209 208 -209 209c-15,15 8,39 24,23l208 -208 209 208c15,16 39,-8 23,-23zm-612 -589l761 0 0 761 -761 0 0 -761z"/></g><text x="0" y="862" fill="#000000" font-size="5px" font-weight="bold" font-family="'Helvetica Neue', Helvetica, Arial-Unicode, Arial, Sans-serif">Created by Fardan</text><text x="0" y="867" fill="#000000" font-size="5px" font-weight="bold" font-family="'Helvetica Neue', Helvetica, Arial-Unicode, Arial, Sans-serif">from the Noun Project</text></svg>